<?xml version="1.0" encoding="UTF-8"?>
  <svg version="1.1" xmlns="http://www.w3.org/2000/svg" width="1600" height="1600">
  <path d="M0 0 C1.49097252 -0.00074171 2.98194488 -0.00192248 4.47291675 -0.0034965 C8.54273432 -0.00653893 12.61252656 -0.00341278 16.68234223 0.00078164 C21.12015991 0.00423769 25.55797521 0.0018409 29.9957934 0.00020415 C37.76430261 -0.00186347 45.53280413 -0.0002363 53.30131245 0.00384235 C64.85270789 0.00989021 76.40409852 0.01017697 87.95549527 0.00930037 C107.3890325 0.00798794 126.82256632 0.01132226 146.25610256 0.01731777 C165.49383085 0.02323764 184.73155772 0.02708429 203.96928692 0.02817059 C205.16605944 0.02823933 206.36283196 0.02830806 207.59587032 0.02837889 C213.67383475 0.02871723 219.75179917 0.02901861 225.8297636 0.02930576 C268.86420709 0.03140539 311.89864872 0.03814055 354.93309116 0.04760838 C396.736802 0.0567948 438.54051233 0.06387744 480.34422398 0.06811619 C481.63311539 0.06824771 482.92200681 0.06837924 484.24995554 0.06851475 C497.19369877 0.06983329 510.13744201 0.0711091 523.08118525 0.07235361 C549.44837026 0.07488973 575.81555525 0.07771098 602.18274021 0.08070469 C603.39502329 0.08084198 604.60730637 0.08097927 605.8563253 0.08112072 C686.79117576 0.0903192 767.72602519 0.10616414 848.66087437 0.12304783 C840.87500631 24.24991049 832.97505973 48.33626707 824.96103028 72.3882558 C823.45410138 76.91198482 821.94885934 81.43627518 820.44336748 85.9604826 C817.4765568 94.87527672 814.50820936 103.78955841 811.53933599 112.70366578 C809.07051443 120.11651071 806.60238358 127.52958533 804.13467693 134.94280148 C803.59654467 136.55939877 803.59654467 136.55939877 803.04754104 138.20865459 C802.31554055 140.40765711 801.58354102 142.60665995 800.85154243 144.8056631 C791.43815848 173.08406976 782.02086967 201.36117568 772.60281363 229.6380266 C771.38183088 233.30392295 770.16086056 236.96982345 768.93989348 240.63572502 C753.36778893 287.3902124 737.79426602 334.14422731 722.2172008 380.89706221 C718.49060301 392.0820325 714.76406242 403.26702184 711.03754877 414.45202016 C710.3770093 416.43460421 709.71646758 418.41718751 709.05592584 420.3997708 C695.12571484 462.21071097 681.20277377 504.02406711 667.28419997 545.83888255 C657.10653216 576.41508625 646.92783231 606.99094432 636.74166203 637.56431675 C636.53190945 638.1938821 636.32215688 638.82344744 636.10604817 639.47209053 C631.70708745 652.67535635 627.3076358 665.87845854 622.90760052 679.0813663 C620.84694742 685.26464213 618.78636794 691.4479425 616.72583103 697.63125706 C616.32036872 698.84796945 615.91490641 700.06468185 615.49715736 701.31826431 C608.98945923 720.84722025 602.48885902 740.37853164 595.99090792 759.9107326 C589.45793011 779.54767056 582.91718677 799.18200844 576.36864412 818.81376141 C572.4851815 830.45667972 568.60750219 842.10148556 564.73831982 853.74915748 C562.14648206 861.5495883 559.54687302 869.34740186 556.94119876 877.14322151 C555.46152058 881.57092612 553.98498361 885.99960171 552.51800054 890.43153036 C543.99660417 916.16475406 534.97681497 941.71752031 522.53587437 965.87304783 C521.94806187 967.02877293 521.36024937 968.18449802 520.75462437 969.37524509 C509.95066812 990.42733178 497.23435427 1010.46692639 482.66087437 1029.12304783 C481.78020656 1030.27113303 480.90002366 1031.4195903 480.02024937 1032.56836033 C474.97865652 1039.11117628 469.78109564 1045.38377605 464.14524937 1051.42773533 C462.23714297 1053.49785076 460.39790326 1055.59197028 458.56712437 1057.72851658 C454.2234037 1062.7084742 449.58137006 1067.38861686 444.91038609 1072.05883884 C443.421942 1073.54946398 441.9417016 1075.047918 440.46165562 1076.54687595 C434.18731748 1082.8575767 427.62437713 1088.56874146 420.66087437 1094.12304783 C419.55911371 1095.05790692 418.46276869 1095.99924893 417.37571812 1096.95117283 C397.99315986 1113.85298172 376.09572653 1127.66114831 353.66087437 1140.12304783 C352.79784702 1140.60386814 351.93481968 1141.08468845 351.04563999 1141.58007908 C293.63962442 1173.27254798 226.8371775 1190.37804444 161.32174873 1190.24609566 C159.83077621 1190.24683737 158.33980386 1190.24801814 156.84883198 1190.24959216 C152.77901441 1190.25263459 148.70922217 1190.24950843 144.63940651 1190.24531402 C140.20158883 1190.24185796 135.76377353 1190.24425476 131.32595533 1190.24589151 C123.55744612 1190.24795913 115.7889446 1190.24633195 108.02043629 1190.2422533 C96.46904084 1190.23620545 84.91765021 1190.23591869 73.36625347 1190.23679529 C53.93271624 1190.23810772 34.49918241 1190.23477339 15.06564617 1190.22877789 C-4.17208212 1190.22285802 -23.40980899 1190.21901136 -42.64753819 1190.21792507 C-43.84431071 1190.21785633 -45.04108323 1190.21778759 -46.27412159 1190.21771677 C-52.35208601 1190.21737843 -58.43005044 1190.21707705 -64.50801487 1190.21678989 C-107.54245835 1190.21469027 -150.57689999 1190.2079551 -193.61134243 1190.19848728 C-235.41505327 1190.18930085 -277.2187636 1190.18221822 -319.02247524 1190.17797947 C-320.31136666 1190.17784794 -321.60025807 1190.17771642 -322.9282068 1190.17758091 C-335.87195004 1190.17626237 -348.81569328 1190.17498656 -361.75943652 1190.17374205 C-388.12662153 1190.17120593 -414.49380651 1190.16838468 -440.86099148 1190.16539097 C-442.07327456 1190.16525368 -443.28555764 1190.16511639 -444.53457657 1190.16497494 C-525.46942703 1190.15577646 -606.40427646 1190.13993151 -687.33912563 1190.12304783 C-674.48322793 1150.40116557 -674.48322793 1150.40116557 -668.94108486 1133.80194187 C-668.39198322 1132.15347525 -667.84301138 1130.5049654 -667.29415262 1128.85641789 C-665.83319761 1124.46950264 -664.37046423 1120.08318244 -662.9073472 1115.69698787 C-661.31109098 1110.91053376 -659.71660005 1106.12349155 -658.12185574 1101.33653355 C-655.01587459 1092.01419617 -651.90831031 1082.69238732 -648.8001342 1073.37078157 C-646.26806342 1065.7768493 -643.73659411 1058.18271675 -641.20553112 1050.58844852 C-640.84207608 1049.49793016 -640.47862103 1048.40741179 -640.1041522 1047.28384741 C-639.36524852 1045.06681659 -638.62634618 1042.84978533 -637.88744514 1040.63275364 C-630.9949104 1019.95231316 -624.10055324 999.2724806 -617.20554833 978.59286359 C-611.32221076 960.94731455 -605.44044397 943.30124259 -599.55982876 925.65478611 C-592.69096323 905.04280617 -585.82109998 884.43115919 -578.94970357 863.82002282 C-578.21325171 861.61098569 -577.47680107 859.40194815 -576.74035168 857.19291019 C-576.37823483 856.10671394 -576.01611799 855.02051769 -575.64302791 853.90140639 C-573.12267464 846.34120072 -570.60300602 838.78076708 -568.08362103 831.22023869 C-565.00139557 821.97072187 -561.91805779 812.72157669 -558.83340432 803.47286931 C-557.26734111 798.777261 -555.70170505 794.08151171 -554.13743305 789.38530636 C-547.65041862 769.91134902 -541.10418216 750.45966803 -534.45488931 731.04048862 C-528.10089148 712.47889239 -521.87522832 693.8755505 -515.67521596 675.26204348 C-514.08254524 670.4817091 -512.48810377 665.70196529 -510.89391994 660.92213535 C-507.79238073 651.6219037 -504.69241925 642.32114696 -501.59307373 633.02018405 C-499.06784529 625.44221575 -496.54201339 617.86444882 -494.01577663 610.2868166 C-493.65259257 609.19741763 -493.2894085 608.10801867 -492.91521886 606.98560762 C-492.17680089 604.77067352 -491.4383816 602.55573987 -490.69996101 600.34080665 C-483.81790933 579.69748547 -476.93767778 559.05355803 -470.05809671 538.40941338 C-464.19015093 520.80111108 -458.32063353 503.19333332 -452.44996548 485.58593845 C-445.5882545 465.00619061 -438.72754276 444.42611008 -431.8683629 423.84551847 C-431.13306804 421.63931543 -430.39777196 419.43311281 -429.66247463 417.22691059 C-429.30094776 416.14217571 -428.9394209 415.05744083 -428.56693867 413.9398352 C-426.05267334 406.39618571 -423.53772432 398.85276437 -421.0224905 391.30943775 C-417.9452721 382.0806249 -414.86916884 372.85144119 -411.79437792 363.62181927 C-410.23382917 358.93759435 -408.67285718 354.25351191 -407.11051655 349.5698843 C-405.39795705 344.43568625 -403.68714334 339.3009091 -401.97767544 334.16568089 C-401.70553408 333.34846586 -401.43339272 332.53125084 -401.15300465 331.68927172 C-397.92697099 321.99590628 -394.73636017 312.29178094 -391.58877468 302.57264423 C-391.27548974 301.60613911 -390.9622048 300.639634 -390.63942638 299.64384084 C-389.13329934 294.99559996 -387.63120664 290.34612692 -386.13655329 285.69418395 C-369.55410458 234.2800432 -344.18036248 187.4929198 -309.33912563 146.12304783 C-308.93148983 145.63389896 -308.52385403 145.1447501 -308.10386562 144.64077854 C-300.9353621 136.05043105 -293.44277249 127.90739393 -285.50245571 120.02563572 C-283.76657832 118.30056306 -282.04177473 116.56492792 -280.31764126 114.82812595 C-273.63054775 108.13313138 -266.75642808 102.00839056 -259.33912563 96.12304783 C-258.2371351 95.18845972 -257.14081352 94.24708242 -256.05396938 93.29492283 C-236.67141112 76.39311394 -214.77397779 62.58494734 -192.33912563 50.12304783 C-191.47609829 49.64222752 -190.61307095 49.1614072 -189.72389126 48.66601658 C-132.31787568 16.97354768 -65.51542877 -0.13194878 0 0 Z " fill="#FDFDFD" transform="translate(719.3391256332397,204.87695217132568)"/>
  <path d="M0 0 C0.66 0.33 1.32 0.66 2 1 C-18.41701514 62.37112855 -38.83667116 123.74137819 -59.27020264 185.10700989 C-59.57304926 186.01651616 -59.87589589 186.92602243 -60.18791968 187.8630895 C-66.77100151 207.63328964 -73.35455257 227.40333349 -79.93858643 247.17321659 C-83.16780369 256.86959907 -86.39691736 266.56601605 -89.62597656 276.26245117 C-90.10795193 277.70975025 -90.10795193 277.70975025 -90.59966418 279.18628769 C-100.99792286 310.41084629 -111.38935042 341.637673 -121.77720461 372.86569437 C-132.4599577 404.98012109 -143.14966485 437.09222487 -153.8480178 469.20145834 C-155.36213361 473.74582257 -156.87617061 478.29021305 -158.39015961 482.83461952 C-158.68811103 483.72894577 -158.98606246 484.62327201 -159.29304272 485.54469905 C-164.07205013 499.889965 -168.8438092 514.23763175 -173.61280183 528.58622973 C-178.41766739 543.04223562 -183.23030328 557.49563634 -188.05065838 571.94648477 C-190.90760745 580.51204352 -193.75880232 589.07946485 -196.60140434 597.64979583 C-198.50937552 603.40027062 -200.42521841 609.14808585 -202.34704113 614.89394607 C-203.43635731 618.15148729 -204.52139734 621.41026743 -205.59915963 624.67166116 C-213.28080357 647.90494918 -221.90375169 670.96264639 -233.125 692.75 C-233.7128125 693.9057251 -234.300625 695.0614502 -234.90625 696.25219727 C-245.71020625 717.30428395 -258.4265201 737.34387856 -273 756 C-273.8806678 757.1480852 -274.7608507 758.29654247 -275.640625 759.4453125 C-280.68221784 765.98812845 -285.87977873 772.26072822 -291.515625 778.3046875 C-293.4237314 780.37480293 -295.2629711 782.46892245 -297.09375 784.60546875 C-301.43747067 789.58542637 -306.07950431 794.26556903 -310.75048828 798.93579102 C-312.23893237 800.42641615 -313.71917277 801.92487017 -315.19921875 803.42382812 C-321.47355689 809.73452887 -328.03649724 815.44569363 -335 821 C-336.10176066 821.93485909 -337.19810568 822.8762011 -338.28515625 823.828125 C-357.66771451 840.72993389 -379.56514784 854.53810048 -402 867 C-403.29454102 867.72123047 -403.29454102 867.72123047 -404.61523438 868.45703125 C-464.50402307 901.52017898 -532.65973875 917.2220996 -600.81077576 917.12025452 C-602.99749151 917.12069124 -605.1842072 917.12156802 -607.37092263 917.12284368 C-613.34566852 917.1250687 -619.32039632 917.12109477 -625.29513991 917.11606562 C-631.7509693 917.11173256 -638.20679774 917.11320957 -644.66262817 917.1139679 C-655.83648852 917.11466367 -667.01034338 917.11139855 -678.18420219 917.10573006 C-689.8971605 917.09980337 -701.61011646 917.09596216 -713.32307625 917.09487724 C-714.05264991 917.0948085 -714.78222356 917.09473976 -715.53390552 917.09466894 C-719.2393748 917.09433059 -722.94484409 917.09402921 -726.65031338 917.09374207 C-752.86363824 917.09164431 -779.07696006 917.08491439 -805.2902832 917.07543945 C-830.74861637 917.06624806 -856.20694871 917.05916786 -881.6652832 917.05493164 C-882.45067778 917.05480011 -883.23607235 917.05466859 -884.04526676 917.05453308 C-891.93286421 917.0532145 -899.82046168 917.0519387 -907.70805915 917.05069422 C-923.7745348 917.04815833 -939.84101039 917.04533708 -955.90748596 917.04234314 C-957.01543593 917.0421372 -957.01543593 917.0421372 -958.14576873 917.04192711 C-1007.43051378 917.03273384 -1056.71525704 917.01686865 -1106 917 C-1103.43671421 914.43671421 -1100.5949535 913.5476981 -1097.265625 912.3046875 C-1095.82863013 911.75651678 -1094.39170306 911.20816832 -1092.95483398 910.65966797 C-1092.18984589 910.3697699 -1091.42485779 910.07987183 -1090.63668823 909.78118896 C-1045.46618667 892.6306414 -1001.33754983 872.81153503 -957.83984375 851.80859375 C-953.39752259 849.66545139 -948.93919115 847.56002754 -944.47045898 845.47265625 C-935.93665585 841.47890389 -927.57897583 837.22178358 -919.265625 832.7890625 C-915.39705665 830.72931124 -911.50886206 828.71153385 -907.609375 826.7109375 C-894.87329795 820.17425777 -882.29129267 813.45141782 -869.8671875 806.33984375 C-864.62633935 803.34214979 -859.34442593 800.42356221 -854.05444336 797.51367188 C-839.82558561 789.67751871 -825.8616317 781.46656652 -812 773 C-810.9392627 772.35417969 -809.87852539 771.70835937 -808.78564453 771.04296875 C-786.18716306 757.27408775 -763.93003285 743.05757106 -742 728.25 C-740.8443605 727.47029343 -740.8443605 727.47029343 -739.66537476 726.67483521 C-728.67798882 719.25421654 -717.80295345 711.68639846 -707 704 C-706.11505859 703.3719043 -705.23011719 702.74380859 -704.31835938 702.09667969 C-692.78376028 693.88797621 -681.5142288 685.34932869 -670.27783203 676.73876953 C-667.38852066 674.53323088 -664.47831887 672.35786318 -661.5625 670.1875 C-646.5153743 658.92875956 -631.89041716 647.07560055 -617.58837891 634.88720703 C-614.20013268 632.00217616 -610.77126361 629.17495149 -607.3125 626.375 C-602.92273353 622.80474131 -598.72172307 619.07117495 -594.54296875 615.2578125 C-591.86222776 612.87767687 -589.10495866 610.62268159 -586.3125 608.375 C-582.57540409 605.3517314 -579.11003908 602.24534644 -575.78149414 598.78198242 C-574.01017562 597.01017841 -572.17608557 595.37214968 -570.27734375 593.73828125 C-566.18545952 590.18150761 -562.20122305 586.52437389 -558.25 582.8125 C-557.55970703 582.16539062 -556.86941406 581.51828125 -556.15820312 580.8515625 C-551.35218294 576.32563414 -546.66048757 571.70176357 -542.02319336 567.00390625 C-538.78411984 563.73750113 -535.42424173 560.69017135 -531.9296875 557.703125 C-526.88584574 553.25147519 -522.1697494 548.43609979 -517.8125 543.3125 C-514.40837259 539.33437453 -510.71850518 535.68026489 -507 532 C-502.80556626 527.84417201 -498.71006124 523.68680025 -494.89453125 519.17578125 C-492.21918013 516.1032646 -489.4140224 513.15665089 -486.625 510.1875 C-481.90230683 505.14333887 -477.43173032 499.97318164 -473.109375 494.578125 C-470.98014854 491.9757371 -468.76550643 489.48424498 -466.5 487 C-461.79531985 481.82485184 -457.39563657 476.4379716 -453 471 C-451.98917233 469.76879913 -450.97739951 468.53837382 -449.96484375 467.30859375 C-442.93183248 458.74735911 -436.14988149 450.0381325 -429.56982422 441.12451172 C-427.92838006 438.9030736 -426.27899329 436.68768036 -424.62890625 434.47265625 C-413.73092905 419.80853378 -403.137483 404.95130119 -393.1875 389.625 C-392.6497998 388.79693848 -392.11209961 387.96887695 -391.55810547 387.11572266 C-389.12508775 383.35014136 -386.72504876 379.57061188 -384.3984375 375.73828125 C-383.99987549 375.09101074 -383.60131348 374.44374023 -383.19067383 373.77685547 C-382.14750267 372.0760869 -381.12178142 370.36464846 -380.09765625 368.65234375 C-376.26274357 363.80335732 -371.40216447 362.70353395 -365.5625 361.4375 C-337.03815794 354.75232337 -308.48560929 344.0581151 -281.57202148 332.69116211 C-280.73098877 332.33675049 -279.88995605 331.98233887 -279.0234375 331.6171875 C-278.29044434 331.30378418 -277.55745117 330.99038086 -276.80224609 330.66748047 C-275 330 -275 330 -273 330 C-272.20604101 315.83933439 -271.71108214 301.68158343 -271.5 287.5 C-271.48448467 286.4700227 -271.46896935 285.44004539 -271.45298386 284.37885666 C-270.1783216 252.9400425 -270.1783216 252.9400425 -283.31954956 225.60177612 C-289.15803539 219.73359524 -295.86175904 214.79096047 -303.07836914 210.75219727 C-304.04250732 210.17397217 -305.00664551 209.59574707 -306 209 C-306 208.34 -306 207.68 -306 207 C-304.56333984 206.23429687 -304.56333984 206.23429687 -303.09765625 205.453125 C-269.53907921 187.25301822 -237.30728575 160.7991574 -225.72216797 123.07397461 C-224.26782504 118.08819424 -222.99454144 113.09983317 -222 108 C-221.1642041 107.99383667 -221.1642041 107.99383667 -220.31152344 107.98754883 C-193.12605082 107.64921907 -165.66518244 104.59142957 -138.875 100 C-138.07932617 99.87069092 -137.28365234 99.74138184 -136.46386719 99.6081543 C-124.26705892 97.29880258 -114.15439945 89.35973589 -104.0625 82.5625 C-102.96692276 81.82826309 -102.96692276 81.82826309 -101.84921265 81.07919312 C-90.33366531 73.359547 -78.98601923 65.46235457 -68 57 C-67.07380859 56.2889209 -67.07380859 56.2889209 -66.12890625 55.56347656 C-62.04950779 52.42058517 -58.01486263 49.22478033 -54 46 C-53.36497559 45.49114258 -52.72995117 44.98228516 -52.07568359 44.45800781 C-43.15460979 37.29764362 -34.38574246 29.98156044 -25.73535156 22.49707031 C-23.95123322 20.95792939 -22.1603238 19.42705984 -20.3671875 17.8984375 C-13.485634 12.02990925 -6.68162206 6.09659525 0 0 Z " fill="#FE8100" transform="translate(1475,478)"/>
  <path d="M0 0 C1.84078125 0.01353516 1.84078125 0.01353516 3.71875 0.02734375 C5.09546875 0.04474609 5.09546875 0.04474609 6.5 0.0625 C6.62867289 8.12600113 6.29681084 16.03747656 5.5 24.0625 C6.799375 24.289375 8.09875 24.51625 9.4375 24.75 C14.84490637 25.82997082 20.07821027 27.37318421 25.35009766 28.96582031 C32.43133474 31.08576852 39.57635313 32.92090477 46.73852539 34.74536133 C54.27955603 36.68796702 61.72232336 38.88369605 69.1184082 41.32202148 C69.88628662 41.56509033 70.65416504 41.80815918 71.4453125 42.05859375 C72.11062988 42.27700928 72.77594727 42.4954248 73.46142578 42.72045898 C77.77705345 43.44455412 80.95829909 42.05429516 84.44140625 39.61328125 C85.1799585 39.10176514 85.91851074 38.59024902 86.67944336 38.06323242 C87.46585205 37.50611572 88.25226074 36.94899902 89.0625 36.375 C89.88951416 35.79919189 90.71652832 35.22338379 91.56860352 34.63012695 C94.2182856 32.78250271 96.85952379 30.92325119 99.5 29.0625 C101.25741884 27.83016757 103.01522812 26.59839176 104.7734375 25.3671875 C107.33875888 23.57033031 109.90405938 21.77344747 112.46850586 19.9753418 C130.90103354 7.0625 130.90103354 7.0625 133.5 7.0625 C134.91015625 8.8984375 134.91015625 8.8984375 136.5625 11.4375 C150.63268682 31.89537899 170.56605639 42.89424611 193.5 51.0625 C190.13269152 53.88968882 186.45999915 55.46751508 182.4375 57.125 C166.61535837 63.88140316 151.79550634 72.29617647 137.46484375 81.796875 C135.70567856 82.9300152 133.87713009 83.95370314 132.04296875 84.9609375 C129.25339433 87.26630008 128.66025355 88.62655159 128.26098633 92.18920898 C128.1936731 93.24023804 128.1936731 93.24023804 128.125 94.3125 C128.05885498 95.06539307 127.99270996 95.81828613 127.92456055 96.59399414 C127.31213834 104.87654302 127.32749512 113.19841692 127.3125 121.5 C127.31123108 122.1868689 127.30996216 122.87373779 127.30865479 123.5814209 C127.31054317 132.62676403 127.51424203 141.59770268 128.87963867 150.55224609 C130.14754504 159.60354913 123.44194694 167.08465283 118.5 174.0625 C117.68112305 175.22724854 117.68112305 175.22724854 116.84570312 176.41552734 C109.2719627 187.11462858 101.22403607 197.28366046 92.5 207.0625 C91.40171875 208.30966797 91.40171875 208.30966797 90.28125 209.58203125 C88.04454312 212.09832649 85.77892946 214.58433897 83.5 217.0625 C82.65018555 217.98796631 82.65018555 217.98796631 81.78320312 218.93212891 C79.84008264 221.04319195 77.88977496 223.14740203 75.9375 225.25 C75.32414795 225.91563965 74.7107959 226.5812793 74.07885742 227.26708984 C70.35090778 231.26071859 66.47967294 234.94282061 62.31201172 238.47631836 C60.50948815 240.05419435 58.84504425 241.70910697 57.1875 243.4375 C53.56179265 247.12036941 49.60573866 250.31029503 45.58203125 253.546875 C42.81070607 255.80889454 40.09734016 258.11955352 37.39599609 260.46362305 C30.8764444 266.11947345 24.21821419 271.53737508 17.30517578 276.70800781 C15.40222862 278.13586159 13.512093 279.5798063 11.62109375 281.0234375 C-3.90894936 292.76779834 -20.21780556 303.40089937 -36.5 314.0625 C-37.44939453 314.68431152 -38.39878906 315.30612305 -39.37695312 315.94677734 C-69.71865988 335.70515172 -101.65563947 353.15279339 -133.859375 369.6484375 C-138.46169023 372.00650964 -143.03929787 374.40276836 -147.59619141 376.84716797 C-170.84937817 389.29350076 -194.87640993 400.30446991 -218.92723083 411.10600281 C-223.49471303 413.15746631 -228.05645916 415.22112782 -232.61453247 417.29341125 C-255.93511133 427.89487692 -279.39186399 438.1263162 -303.01989746 448.02331543 C-305.46602805 449.04826546 -307.91131273 450.07521079 -310.35644531 451.10253906 C-356.34873695 470.41132228 -402.7830274 488.64388588 -449.23321533 506.8167572 C-451.09652415 507.54630065 -452.95922875 508.27738984 -454.82122803 509.01026917 C-456.65231187 509.72952519 -458.48564074 510.44308503 -460.32086182 511.15171814 C-461.21343689 511.50005203 -462.10601196 511.84838593 -463.02563477 512.20727539 C-464.21480247 512.66741783 -464.21480247 512.66741783 -465.42799377 513.13685608 C-468.31719441 514.4275718 -470.3759315 516.16903211 -472.625 518.375 C-475.40445526 521.05347159 -478.19074226 523.6722896 -481.12109375 526.18359375 C-485.94839908 530.38432118 -490.48527307 534.86169514 -495.00854492 539.38574219 C-496.42668284 540.80169947 -497.85296665 542.20948289 -499.27929688 543.6171875 C-505.46088542 549.78588879 -511.08814946 556.21267243 -516.5 563.0625 C-517.4768217 564.26647187 -518.45452727 565.46972786 -519.43359375 566.671875 C-543.64396423 596.86799102 -561.74762983 631.99175189 -569.5 670.0625 C-569.66371094 670.84302734 -569.82742188 671.62355469 -569.99609375 672.42773438 C-572.6011798 685.4854591 -572.80803154 698.60931326 -572.875 711.875 C-572.88691879 713.09419128 -572.88691879 713.09419128 -572.89907837 714.3380127 C-573.0082444 728.89177126 -571.25461061 742.44074495 -569.5 757.0625 C-616.03 757.0625 -662.56 757.0625 -710.5 757.0625 C-696.70504628 714.52805936 -696.70504628 714.52805936 -692.10195923 700.74139404 C-691.55285759 699.09292743 -691.00388575 697.44441757 -690.45502698 695.79587007 C-688.99407198 691.40895481 -687.5313386 687.02263461 -686.06822157 682.63644004 C-684.47196535 677.84998593 -682.87747442 673.06294372 -681.2827301 668.27598572 C-678.17674895 658.95364834 -675.06918467 649.63183949 -671.96100856 640.31023374 C-669.42893778 632.71630147 -666.89746848 625.12216892 -664.36640549 617.5279007 C-664.00295044 616.43738233 -663.6394954 615.34686396 -663.26502656 614.22329958 C-662.52612289 612.00626876 -661.78722054 609.7892375 -661.0483195 607.57220581 C-654.15578476 586.89176533 -647.26142761 566.21193277 -640.3664227 545.53231576 C-634.48308513 527.88676673 -628.60131834 510.24069476 -622.72070312 492.59423828 C-615.8518376 471.98225834 -608.98197435 451.37061137 -602.11057794 430.75947499 C-601.37412608 428.55043786 -600.63767544 426.34140032 -599.90122604 424.13236237 C-599.5391092 423.04616611 -599.17699236 421.95996986 -598.80390228 420.84085856 C-596.28354901 413.28065289 -593.76388039 405.72021925 -591.24449539 398.15969086 C-588.16226994 388.91017405 -585.07893215 379.66102886 -581.99427868 370.41232148 C-580.42821547 365.71671318 -578.86257941 361.02096388 -577.29830742 356.32475853 C-570.37954577 335.55461252 -563.39984167 314.80737166 -556.28012097 294.10511279 C-551.44964027 280.03885698 -546.90732527 265.88873005 -542.42859304 251.7072742 C-539.53720245 242.55493428 -536.57643928 233.42478966 -533.61994302 224.2933166 C-530.74075282 215.40029332 -527.88443292 206.50139459 -525.09399414 197.58007812 C-522.83736535 190.36588153 -520.53402231 183.1685675 -518.17466861 175.9872824 C-516.93948602 172.22207187 -515.72797811 168.4529357 -514.57370567 164.66205978 C-507.07643924 140.12239087 -507.07643924 140.12239087 -500.33853149 135.80101013 C-496.80133252 134.10035394 -493.24220779 133.14162376 -489.39101601 132.44065857 C-486.84714119 131.93194365 -484.6452798 130.95014761 -482.30859375 129.84106445 C-481.58518295 129.52497223 -480.86177216 129.20888 -480.11643982 128.88320923 C-479.03786461 128.40928238 -479.03786461 128.40928238 -477.9375 127.92578125 C-476.24242906 127.18607489 -474.54719035 126.44675289 -472.85180664 125.70776367 C-471.98202179 125.32832611 -471.11223694 124.94888855 -470.21609497 124.55795288 C-433.77715485 108.68753978 -397.00467185 93.59733929 -359.70141602 79.87249756 C-357.47026127 79.05155781 -355.23999807 78.22822679 -353.00976562 77.40478516 C-323.15070838 66.39732175 -293.05278205 55.98797274 -262.5 47.0625 C-261.4879248 46.76456543 -260.47584961 46.46663086 -259.43310547 46.15966797 C-251.14108112 43.72527757 -242.82857593 41.36856617 -234.5 39.0625 C-233.80412781 38.86958374 -233.10825562 38.67666748 -232.39129639 38.47790527 C-199.10746096 29.27167825 -165.45115553 21.87485252 -131.4909668 15.62036133 C-129.34195228 15.21953705 -127.19521066 14.80645437 -125.05004883 14.38549805 C-113.23239636 12.09297166 -101.35583066 10.30858509 -89.4375 8.625 C-88.36671204 8.47287048 -87.29592407 8.32074097 -86.19268799 8.16400146 C-64.95672157 5.17311422 -43.681213 3.1590394 -22.2953949 1.60694885 C-18.5676603 1.3315353 -14.86602171 1.00413351 -11.15869141 0.52319336 C-7.39676539 0.04950095 -3.78915851 -0.03643422 0 0 Z " fill="#21202D" transform="translate(742.5,637.9375)"/>
  <path d="M0 0 C1.49097252 -0.00074171 2.98194488 -0.00192248 4.47291675 -0.0034965 C8.54273432 -0.00653893 12.61252656 -0.00341278 16.68234223 0.00078164 C21.12015991 0.00423769 25.55797521 0.0018409 29.9957934 0.00020415 C37.76430261 -0.00186347 45.53280413 -0.0002363 53.30131245 0.00384235 C64.85270789 0.00989021 76.40409852 0.01017697 87.95549527 0.00930037 C107.3890325 0.00798794 126.82256632 0.01132226 146.25610256 0.01731777 C165.49383085 0.02323764 184.73155772 0.02708429 203.96928692 0.02817059 C205.16605944 0.02823933 206.36283196 0.02830806 207.59587032 0.02837889 C213.67383475 0.02871723 219.75179917 0.02901861 225.8297636 0.02930576 C268.86420709 0.03140539 311.89864872 0.03814055 354.93309116 0.04760838 C396.736802 0.0567948 438.54051233 0.06387744 480.34422398 0.06811619 C481.63311539 0.06824771 482.92200681 0.06837924 484.24995554 0.06851475 C497.19369877 0.06983329 510.13744201 0.0711091 523.08118525 0.07235361 C549.44837026 0.07488973 575.81555525 0.07771098 602.18274021 0.08070469 C603.39502329 0.08084198 604.60730637 0.08097927 605.8563253 0.08112072 C686.79117576 0.0903192 767.72602519 0.10616414 848.66087437 0.12304783 C848.32161482 1.16877976 847.98235527 2.21451169 847.63281512 3.29193246 C846.35123336 7.24236009 845.0697773 11.19282849 843.78835559 15.14330804 C843.23802056 16.83987223 842.68765327 18.53642595 842.13725066 20.23296821 C838.76051169 30.64139967 835.38951713 41.05163862 832.02903843 51.46533298 C828.58492943 62.12704146 825.11162414 72.77895734 821.61719227 83.42428112 C819.53213317 89.77914333 817.45914755 96.13730633 815.41331577 102.50488377 C813.39870869 108.77513537 811.35139498 115.03406157 809.2833643 121.28693867 C808.50850644 123.64767659 807.74462522 126.01204778 806.99218082 128.38002491 C805.94887267 131.6571312 804.86714231 134.91903308 803.77513218 138.18017673 C803.4767696 139.14919422 803.17840702 140.11821171 802.87100315 141.11659336 C800.68404277 147.46010363 800.68404277 147.46010363 797.73859692 149.36855412 C795.70990421 150.15090478 793.78878509 150.68998687 791.66087437 151.12304783 C790.03834751 151.55472263 790.03834751 151.55472263 788.38304234 151.99511814 C787.31714878 152.22811619 786.25125523 152.46111423 785.15306187 152.70117283 C783.93530064 152.97115086 782.71753941 153.24112888 781.46287632 153.51928806 C780.82435734 153.65809391 780.18583836 153.79689976 779.52797031 153.93991184 C776.06060078 154.69381254 772.59747034 155.46685331 769.13353062 156.23632908 C768.42301044 156.39355946 767.71249027 156.55078983 766.98043919 156.71278477 C759.96386394 158.26847703 752.96839236 159.91085954 745.97337437 161.56054783 C733.12107191 164.58305364 720.23960164 167.46175819 707.34178257 170.28295994 C705.90899917 170.59775961 704.47629926 170.91293958 703.04368687 171.22851658 C702.34936054 171.38106403 701.65503422 171.53361149 700.9396677 171.69078159 C697.35893544 172.48729855 693.79724932 173.33154054 690.2458353 174.25048923 C689.52733402 174.43597828 688.80883274 174.62146732 688.06855869 174.81257725 C686.09201072 175.32833377 684.11827748 175.8548432 682.14476109 176.38208103 C678.66087437 177.12304783 678.66087437 177.12304783 672.66087437 177.12304783 C672.66087437 149.40304783 672.66087437 121.68304783 672.66087437 93.12304783 C646.95174491 96.06123405 621.9158293 99.08051231 596.66087437 104.12304783 C594.81550083 104.48656345 594.81550083 104.48656345 592.93284702 104.85742283 C565.04959803 110.35586607 537.36864447 116.66284725 510.19163609 125.0405283 C507.55035527 125.85033601 504.90678597 126.64800429 502.2590189 127.43603611 C498.16433671 128.65687865 494.07991361 129.90843386 489.99958897 131.17639256 C488.38751759 131.67312724 486.77284415 132.16151347 485.15541172 132.64050388 C473.68293949 136.05135668 464.97881169 140.62044138 455.66087437 148.12304783 C454.88211948 148.72576511 454.1033646 149.3284824 453.30101109 149.94946384 C451.39468856 151.43659866 449.52293071 152.95601261 447.66087437 154.49804783 C446.99773228 155.0427573 446.33459019 155.58746677 445.65135288 156.14868259 C443.6485421 157.79975465 441.65320421 159.45934972 439.66087437 161.12304783 C439.05743198 161.62594334 438.4539896 162.12883884 437.83226109 162.64697361 C425.04730911 173.34285808 412.97044813 184.73935651 401.16087437 196.49804783 C400.41934116 197.23490818 399.67780796 197.97176853 398.91380405 198.73095798 C394.8067911 202.85004492 390.87420738 207.06405641 387.08860874 211.48095798 C385.99474151 212.73905494 384.83971988 213.94420232 383.66087437 215.12304783 C380.92601109 215.10839939 380.92601109 215.10839939 377.46556187 214.76367283 C339.40114257 211.4857687 299.783038 216.19035298 264.65696812 231.86523533 C261.66087437 233.12304783 261.66087437 233.12304783 258.66087437 233.12304783 C258.4533353 232.45249363 258.24579624 231.78193943 258.03196812 231.09106541 C254.00375434 218.15661228 254.00375434 218.15661228 245.12278843 208.57519627 C239.15415116 206.39398746 232.98849144 205.77741943 226.67991734 205.33789158 C223.97747862 205.14557829 221.34360147 204.83056132 218.66478062 204.43554783 C213.3390283 203.70040129 208.02894289 203.37893837 202.66087437 203.12304783 C202.01708836 203.08828342 201.37330235 203.05351902 200.71000767 203.01770115 C175.25032273 201.12030717 175.25032273 201.12030717 152.44847202 210.81884861 C150.58947536 212.17513927 148.68426133 213.3544663 146.70384312 214.52539158 C133.96209415 222.07440459 121.86113864 230.726123 110.22337437 239.87304783 C109.35664097 240.5484763 109.35664097 240.5484763 108.4723978 241.23754978 C105.90666869 243.25745004 103.4914075 245.28596652 101.13353062 247.55273533 C96.43516597 251.94621441 93.18728601 253.53969286 86.70384312 253.78711033 C86.0112389 253.81782627 85.31863468 253.84854221 84.60504246 253.88018894 C82.29063502 253.97796403 79.97624019 254.05176862 77.66087437 254.12304783 C76.02478307 254.18114391 74.38871572 254.23991757 72.75267124 254.29931736 C69.12971067 254.42748484 65.50657184 254.5486374 61.88328648 254.66723728 C-18.50336184 257.35928837 -98.93513152 265.56479587 -178.2588644 278.7773447 C-181.00910375 279.2343865 -183.76030985 279.6854534 -186.51150417 280.13670444 C-194.45823251 281.44097185 -202.39991203 282.77386296 -210.33912563 284.12304783 C-212.00540005 284.40559422 -212.00540005 284.40559422 -213.70533657 284.69384861 C-216.85469151 285.22936076 -220.00332463 285.76887709 -223.15162563 286.31054783 C-224.05840054 286.46539646 -224.96517544 286.62024509 -225.89942837 286.77978611 C-230.53719167 287.58509636 -235.12488328 288.50367582 -239.71388149 289.54907322 C-243.69149506 290.41872536 -247.6885671 291.18602833 -251.68430996 291.9673624 C-279.78663735 297.46758988 -307.61818621 303.88283604 -335.40162563 310.81054783 C-336.31830013 311.03875217 -337.23497463 311.26695652 -338.17942715 311.50207615 C-352.38153886 315.04521322 -366.52145303 318.7767111 -380.55006313 322.95898533 C-381.42146938 323.21808689 -382.29287563 323.47718845 -383.19068813 323.74414158 C-384.92962662 324.26366964 -386.66650427 324.79012907 -388.40162563 325.32226658 C-389.25498501 325.57363377 -390.10834438 325.82500095 -390.98756313 326.08398533 C-392.10397182 326.42115574 -392.10397182 326.42115574 -393.24293423 326.76513767 C-395.60190947 327.16791635 -397.06037181 326.75994395 -399.33912563 326.12304783 C-396.93558985 318.61406571 -394.51853751 311.10956708 -392.08603096 303.60992718 C-390.95581624 300.12405849 -389.82961133 296.63701984 -388.71388149 293.14648533 C-381.23963303 269.77983725 -372.85103345 246.94147776 -361.40650845 225.17236423 C-360.21228518 222.87952112 -359.05300157 220.57051131 -357.89381313 218.25976658 C-344.71885056 192.23738225 -328.10471365 168.40497706 -309.33912563 146.12304783 C-308.93148983 145.63389896 -308.52385403 145.1447501 -308.10386562 144.64077854 C-300.9353621 136.05043105 -293.44277249 127.90739393 -285.50245571 120.02563572 C-283.76657832 118.30056306 -282.04177473 116.56492792 -280.31764126 114.82812595 C-273.63054775 108.13313138 -266.75642808 102.00839056 -259.33912563 96.12304783 C-258.2371351 95.18845972 -257.14081352 94.24708242 -256.05396938 93.29492283 C-236.67141112 76.39311394 -214.77397779 62.58494734 -192.33912563 50.12304783 C-191.47609829 49.64222752 -190.61307095 49.1614072 -189.72389126 48.66601658 C-132.31787568 16.97354768 -65.51542877 -0.13194878 0 0 Z " fill="#21202D" transform="translate(719.3391256332397,204.87695217132568)"/>
  <path d="M0 0 C1.010625 0.35191406 2.02125 0.70382812 3.0625 1.06640625 C12.74488304 4.73360883 20.88312519 9.76818296 25.9609375 19.05859375 C28.29735916 25.67259942 28.32295808 33.01952086 26.109375 39.6796875 C24.91201039 41.98660998 23.59396407 43.9488838 22 46 C21.23816406 47.02673828 21.23816406 47.02673828 20.4609375 48.07421875 C8.69238673 62.71518832 -11.47738544 70.02888347 -29.58203125 72.68359375 C-49.4466421 74.52248915 -69.13753775 72.63254946 -85.5078125 60.296875 C-89.35784845 56.74856601 -91.72464323 52.67229749 -94 48 C-94.33 47.34 -94.66 46.68 -95 46 C-96.4740442 35.58839667 -92.50072689 28.20107996 -86.8125 19.75 C-65.72692647 -0.86700523 -28.27197835 -10.47577769 0 0 Z " fill="#22212E" transform="translate(1098,502)"/>
</svg>
